<?xml version="1.0" encoding="UTF-8"?>
<svg id="Layer_1" xmlns="http://www.w3.org/2000/svg" version="1.1" viewBox="0 0 216 216">
  <!-- Generator: Adobe Illustrator 29.5.1, SVG Export Plug-In . SVG Version: 2.1.0 Build 141)  -->
  <path d="M108,182.23c-40.93,0-74.23-33.3-74.23-74.23S67.07,33.77,108,33.77s74.23001,33.3,74.23001,74.23-33.3,74.23001-74.23,74.23001v-.00002ZM108,38.77c-38.17,0-69.23,31.05-69.23,69.23s31.05,69.23001,69.23,69.23001,69.23001-31.05,69.23001-69.23-31.05-69.23-69.23001-69.23001Z"/>
  <g>
    <g>
      <g>
        <path d="M103.54,119.89v-17.28c0-2.8-4.05-1.89-4.05-1.89l-10.99,1.02v-17.35c0-20.89,19.51-30.3,19.51-30.3,0,0,19.51,9.41,19.51,30.3v17.35l-10.99-1.02s-4.05-.91-4.05,1.89v17.28h-8.94Z" fill="#6cc"/>
        <path d="M112.46,122.39h-8.93c-1.38,0-2.5-1.12-2.5-2.5v-16.8c-.31-.01-.7.02-1.02.08-.09.02-.21.04-.3.05l-10.99,1.02c-.7.07-1.4-.17-1.92-.64s-.82-1.14-.82-1.85v-17.35c0-22.21,20.07-32.14,20.92-32.55.69-.33,1.49-.33,2.17,0,.85.41,20.92001,10.35,20.92001,32.55v17.35c0,.7-.3,1.37-.82001,1.85-.52.47-1.22.71-1.92.64l-10.99-1.02c-.11,0-.21-.03-.32-.05-.3-.06-.7-.09-1-.08v16.81c0,1.38-1.12,2.5-2.5,2.5l.02-.00999ZM106.04,117.39h3.93v-14.78c0-1.4.56-2.62,1.58-3.44,1.82-1.46,4.48-1.1,5.34-.93l8.12.76v-14.6c0-16.5-13.06-25.21-17.01-27.47-3.94,2.25-17.01,10.96-17.01,27.47v14.6l8.12-.76c.86-.17,3.51-.53,5.34.93,1.02.82,1.58,2.04,1.58,3.44v14.78h.01Z"/>
      </g>
      <path d="M118.08,84.72c-1.38,0-2.5-1.12-2.5-2.5,0-8.31-6.54-13.02-6.82-13.21-1.12-.79-1.4-2.35-.61-3.48.79-1.13,2.34-1.41,3.47-.62.37.25,8.96,6.34,8.96,17.32,0,1.38-1.12,2.5-2.5,2.5v-.00999Z" fill="#c5ffea"/>
      <path d="M108,120.06c-1.38,0-2.5-1.12-2.5-2.5v-28.33c0-1.38,1.12-2.5,2.5-2.5s2.5,1.12,2.5,2.5v28.33c0,1.38-1.12,2.5-2.5,2.5Z" fill="#c5ffea"/>
      <g>
        <rect x="104.82" y="119.89" width="6.35" height="59.75999" fill="#f33"/>
        <path d="M111.18,182.16h-6.35c-1.38,0-2.5-1.12-2.5-2.5v-59.75999c0-1.38,1.12-2.5,2.5-2.5h6.35c1.38,0,2.5,1.12,2.5,2.5v59.75999c0,.66-.26,1.3-.73,1.77s-1.1.73-1.77.73ZM107.32,177.16h1.35v-54.75999h-1.35v54.75999Z"/>
      </g>
    </g>
    <g>
      <g>
        <path d="M137.88,111.85s4.05-.02,4.05,2.78v18.17001h8.93001v-18.17c0-2.8,4.05-2.78,4.05-2.78" fill="#6cc"/>
        <path d="M150.86,135.31h-8.93001c-1.38,0-2.5-1.12-2.5-2.5v-18.1c-.28999-.19-1.09-.34-1.53999-.35h0c-1.38,0-2.49001-1.11-2.5-2.49,0-1.38,1.11-2.5,2.49001-2.51.55,0,3.37.08,5.16,1.86.92.91,1.39999,2.1,1.39999,3.42v15.67h3.92999v-15.67c0-1.32.48-2.51,1.39999-3.42,1.78999-1.78,4.64-1.86,5.16-1.86,1.38,0,2.5,1.13,2.49001,2.51,0,1.38-1.13,2.49-2.50999,2.49-.53999,0-1.25999.17-1.53999.35v18.1c0,1.38-1.12,2.5-2.5,2.5h-.01001Z"/>
      </g>
      <path d="M146.39,132.98c-1.38,0-2.5-1.12-2.5-2.5v-18.62c0-1.38,1.12-2.5,2.5-2.5s2.5,1.12,2.5,2.5v18.62c0,1.38-1.12,2.5-2.5,2.5Z" fill="#c5ffea"/>
      <g>
        <polygon points="149.57001 166.46001 143.21001 170.5 143.21001 132.81 149.57001 132.81 149.57001 166.46001" fill="#f33"/>
        <path d="M143.21001,173c-.41,0-.83-.10001-1.2-.31-.8-.44-1.3-1.28-1.3-2.19v-37.69c0-1.38,1.12-2.5,2.5-2.5h6.36c1.38,0,2.5,1.12,2.5,2.5v33.64999c0,.85001-.44,1.64999-1.16,2.11l-6.36,4.03999c-.41.25999-.88.39-1.34.39v.00002ZM149.57001,166.46001h0ZM145.71001,135.31v30.64l1.36-.86v-29.78h-1.36Z"/>
      </g>
      <path d="M172.06,114.35h-51.34c-1.38,0-2.5-1.12-2.5-2.5s1.12-2.5,2.5-2.5h51.34c1.38,0,2.5,1.12,2.5,2.5s-1.12,2.5-2.5,2.5Z"/>
      <path d="M124.06,121.4c-.59,0-1.15-.35-1.39-.93l-3.34-8.05c-.32-.77.05-1.64.81-1.96.77-.32,1.64.05,1.96.81l3.34,8.05c.32.77-.05,1.64-.81,1.96-.19.08-.38.12-.57.12Z"/>
      <path d="M129.64,121.4c-.64,0-1.23-.41-1.42999-1.05l-2.5-8.05c-.25-.79.2-1.63.99-1.88s1.63.2,1.88.99l2.5,8.05c.25.79-.2,1.63-.99001,1.88-.14999.05-.3.07-.45.07v-.00999Z"/>
      <path d="M135.22,121.4c-.7,0-1.32001-.49-1.47-1.2l-1.67-8.05c-.17-.81.35001-1.6,1.16-1.77s1.61.35,1.77,1.16l1.67,8.05c.17.81-.35001,1.6-1.16,1.77-.10001.02-.21001.03-.31.03l.00999.00999Z"/>
      <path d="M140.81,121.4c-.75999,0-1.41-.57-1.49001-1.35l-.83-8.05c-.08-.82.50999-1.56,1.34-1.65.82001-.08,1.56.51,1.64999,1.34l.83,8.05c.08.82-.50999,1.56-1.34,1.65h-.16l.00002.01Z"/>
      <path d="M151.98,121.4h-.16c-.82001-.09-1.42-.82-1.34-1.65l.83-8.05c.09-.82.82001-1.42,1.64999-1.34.82001.09,1.42.82,1.34,1.65l-.83,8.05c-.08.77-.73,1.35-1.49001,1.35l.00002-.01Z"/>
      <path d="M157.56,121.4c-.10001,0-.2-.01-.31-.03-.81-.17-1.33-.96-1.16-1.77l1.67-8.05c.17-.81.96001-1.33,1.77-1.16s1.33.96,1.16,1.77l-1.67,8.05c-.14999.71-.77,1.2-1.47,1.2l.00999-.00999Z"/>
      <path d="M163.14,121.4c-.14999,0-.3-.02-.45-.07-.78999-.25-1.23-1.09-.99001-1.88l2.5-8.05c.25-.79,1.09-1.23,1.88-.99.78999.25,1.23,1.09.99001,1.88l-2.5,8.05c-.2.64-.78999,1.05-1.42999,1.05l-.00002.00999Z"/>
      <path d="M168.72,121.4c-.19,0-.39-.04-.57001-.12-.75999-.32-1.13-1.19-.81-1.96l3.34-8.05c.32001-.76,1.19-1.13,1.96001-.81.75999.32,1.13,1.19.81,1.96l-3.34,8.05c-.24001.58-.8.93-1.39.93Z"/>
    </g>
    <g>
      <g>
        <path d="M72.14,108.11v29.88h-6.35v-29.88s2.89-2.66,6.35,0Z" fill="#6cc"/>
        <path d="M72.14,140.5h-6.35c-1.38,0-2.5-1.12-2.5-2.5v-29.88c0-.7.29-1.37.81-1.84,1.54-1.41,5.51-3.25,9.57-.14.62.47.98,1.21.98,1.98v29.88c0,1.38-1.12,2.5-2.5,2.5l-.01-.00002ZM68.29,135.5h1.35v-25.94c-.53-.18-.98-.15-1.35-.03v25.97Z"/>
      </g>
      <path d="M68.96,141.49001c-1.38,0-2.5-1.12-2.5-2.5v-10.92c0-1.38,1.12-2.5,2.5-2.5s2.5,1.12,2.5,2.5v10.92c0,1.38-1.12,2.5-2.5,2.5Z" fill="#6cc"/>
      <path d="M73.43,143.82001h-8.93c-1.38,0-2.5-1.12-2.5-2.5v-11.92c0-.8.38-1.56,1.04-2.03.23-.16,5.6-3.95,11.73-.09.73.46,1.17,1.25999,1.17,2.12v11.92c0,1.38-1.12,2.5-2.5,2.5h-.01ZM67,138.82001h3.93v-7.89c-1.61-.61-3.02-.35001-3.93-.02v7.91Z"/>
      <g>
        <polygon points="72.14 170.13 65.79 165.99001 65.79 141.32001 72.14 141.32001 72.14 170.13" fill="#f33"/>
        <path d="M72.14,172.63c-.48,0-.95-.14-1.36-.41l-6.35-4.14c-.71-.46001-1.14-1.25-1.14-2.09v-24.67c0-1.38,1.12-2.5,2.5-2.5h6.35c1.38,0,2.5,1.12,2.5,2.5v28.81c0,.92-.5,1.75999-1.31,2.2-.37.2-.78.3-1.19.3ZM68.29,164.64l1.35.88v-21.7h-1.35v20.82001-.00002Z"/>
      </g>
      <g>
        <path d="M65.79,109.01s-7.33-3.59-14.2,2.68l-2.82,12.14h17.01v-14.82h.01Z" fill="#c5ffea"/>
        <path d="M65.79,125.32h-17.01c-.46,0-.89-.21-1.17-.57s-.39-.83-.29-1.27l2.82-12.14c.07-.3.23-.56.45-.77,7.54-6.88,15.53-3.08,15.87-2.92.51.25.84.77.84,1.35v14.81c0,.83-.67,1.5-1.5,1.5l-.00999.00999ZM50.66,122.32h13.63v-12.29c-1.9-.62-6.67-1.56-11.34,2.46l-2.28,9.83h-.01Z"/>
      </g>
      <g>
        <path d="M73.43,109.01s7.33-3.59,14.2,2.68l2.82,12.14h-17.01v-14.82h-.00999Z" fill="#c5ffea"/>
        <path d="M90.44,125.32h-17.01c-.83,0-1.5-.67-1.5-1.5v-14.81c0-.57.33-1.09.84-1.35.33-.17,8.33-3.96,15.87,2.92.22.21.38.47.45.77l2.82,12.14c.1.45,0,.91-.29,1.27-.29.36-.72.57-1.17.57l-.00999-.00999ZM74.93,122.32h13.63l-2.28-9.83c-4.67-4.02-9.44-3.08-11.34-2.46v12.29h-.01Z"/>
      </g>
    </g>
  </g>
</svg>